<?xml version="1.0" encoding="utf-8"?>
<!-- Generator: Adobe Illustrator 18.0.0, SVG Export Plug-In . SVG Version: 6.00 Build 0)  -->
<!DOCTYPE svg PUBLIC "-//W3C//DTD SVG 1.1//EN" "http://www.w3.org/Graphics/SVG/1.1/DTD/svg11.dtd">
<svg version="1.1" xmlns="http://www.w3.org/2000/svg" xmlns:xlink="http://www.w3.org/1999/xlink" x="0px" y="0px"
	 viewBox="0 0 350 350" enable-background="new 0 0 350 350" xml:space="preserve">
<g id="Layer_2">
	<rect x="-26.9" y="-33.1" fill="#343944" width="412.5" height="412.5"/>
</g>
<g id="Layer_1" display="none">
	<polygon display="inline" fill="#EA8024" points="362.4,-150.4 394.8,-169.1 427.2,-150.4 427.2,-113 394.8,-94.2 362.4,-113 	"/>
	<polygon display="inline" fill="#3A8CB5" points="326.4,-212.6 358.8,-231.4 391.3,-212.6 391.3,-175.2 358.8,-156.5 326.4,-175.2 
			"/>
	<polygon display="inline" fill="#94D6DF" points="434.2,-150.4 466.6,-169.1 499.1,-150.4 499.1,-113 466.6,-94.2 434.2,-113 	"/>
	<polygon display="inline" fill="#E65847" points="470.1,-212.6 502.6,-231.4 535,-212.6 535,-175.2 502.6,-156.5 470.1,-175.2 	"/>
	<polygon display="inline" fill="#FDC536" points="362.4,-274.9 394.8,-293.6 427.2,-274.9 427.2,-237.5 394.8,-218.7 362.4,-237.5 
			"/>
	<polygon display="inline" fill="#2AB59C" points="434.2,-274.9 466.6,-293.6 499.1,-274.9 499.1,-237.5 466.6,-218.7 434.2,-237.5 
			"/>
</g>
<g id="Layer_5">
	<polygon fill="none" points="178.9,56 179.3,56.2 179.7,56 	"/>
	<g>
		<polygon fill="#29A7AD" points="96.1,292.2 253.3,292.2 281.8,243.2 68,243.2 		"/>
		<polygon fill="#EC8C28" points="118.5,57.8 39.8,194.1 68,243.2 68,243.2 174.9,58 174.5,57.8 		"/>
		<polygon fill="#ED1F8F" points="175.3,57.8 174.9,58 281.8,243.2 310.2,194.4 231.4,57.8 		"/>
	</g>
</g>
<g id="Layer_6" display="none">
	<polygon display="inline" fill="#F4A51D" points="179.5,47.6 179.4,47.5 179.2,47.6 	"/>
	<polygon display="inline" fill="#F4A51D" points="179.2,47.6 179.4,47.8 179.5,47.6 	"/>
	<polygon display="inline" fill="none" points="73,232.1 72.5,231.9 72.7,232.1 72.7,232.1 	"/>
	<polygon display="inline" fill="#F4A51D" points="179.4,47.8 179.2,47.6 102.4,47.6 34.2,165.6 72.5,231.9 73,232.1 	"/>
	<polygon display="inline" fill="none" points="297,265.5 297.2,265.5 297.1,265.4 	"/>
	<polygon display="inline" fill="#EF3A5B" points="256.3,47.6 179.5,47.6 179.4,47.8 285.7,232 324.3,165.2 	"/>
	<polygon display="inline" fill="#34B1BF" points="73,232.1 72.7,232.1 111.2,298.9 247.1,298.9 285.6,232.1 	"/>
	<polygon display="inline" fill="#FDC536" points="211.5,-162.6 254.8,-237.6 298.1,-162.6 	"/>
	<polygon display="inline" fill="#3A8CB5" points="168.2,-87.6 211.5,-162.6 254.8,-87.6 	"/>
	<polygon display="inline" fill="#2AB59C" points="254.8,-87.6 298.1,-162.6 341.4,-87.6 	"/>
	<polygon display="inline" fill="#FDC536" points="-8,-107.6 78.6,-257.6 78.6,-107.6 	"/>
	<polygon display="inline" fill="#E65847" points="78.6,-107.6 78.6,-257.6 165.2,-107.6 	"/>
	<polygon display="inline" fill="#3A8CB5" points="-7.5,-107.6 78.9,-162.6 165.3,-107.6 	"/>
</g>
<g id="Layer_3" display="none">
	<circle display="inline" fill="#FDC536" stroke="#92722C" stroke-miterlimit="10" cx="143.4" cy="110.9" r="31.8"/>
	<circle display="inline" fill="#28B49B" stroke="#11473C" stroke-miterlimit="10" cx="215.3" cy="110.9" r="31.8"/>
	<circle display="inline" fill="#E55846" stroke="#782E29" stroke-miterlimit="10" cx="251.2" cy="173.2" r="31.8"/>
	<circle display="inline" fill="#B3E1E8" stroke="#5F7375" stroke-miterlimit="10" cx="215.3" cy="235.4" r="31.8"/>
	<circle display="inline" fill="#E87F24" stroke="#703E19" stroke-miterlimit="10" cx="107.5" cy="173.2" r="31.8"/>
	<circle display="inline" fill="#3077A3" stroke="#193B4B" stroke-miterlimit="10" cx="143.4" cy="235.4" r="31.8"/>
</g>
<g id="Layer_4" display="none">
	<circle display="inline" fill="#FDC536" cx="143.4" cy="110.9" r="31.8"/>
	<circle display="inline" fill="#28B49B" cx="215.3" cy="110.9" r="31.8"/>
	<circle display="inline" fill="#E55846" cx="251.2" cy="173.2" r="31.8"/>
	<circle display="inline" fill="#B3E1E8" cx="214.2" cy="235.4" r="31.8"/>
	<circle display="inline" fill="#E87F24" cx="107.5" cy="173.2" r="31.8"/>
	<circle display="inline" fill="#3077A3" cx="143.4" cy="235.4" r="31.8"/>
</g>
</svg>
